<mxfile host="app.diagrams.net" modified="2021-06-30T15:47:27.983Z" agent="5.0 (Windows NT 10.0; Win64; x64) AppleWebKit/537.36 (KHTML, like Gecko) Chrome/91.0.4472.114 Safari/537.36 Edg/91.0.864.59" etag="o2lbyMCQ6bygliAFMaZW" version="14.8.3" type="github">
  <diagram id="ij_nAq0aUrtKcF_ApdcB" name="Page-1">
    <mxGraphModel dx="1903" dy="723" grid="1" gridSize="10" guides="1" tooltips="1" connect="1" arrows="1" fold="1" page="1" pageScale="1" pageWidth="850" pageHeight="1100" math="0" shadow="0">
      <root>
        <mxCell id="0" />
        <mxCell id="1" parent="0" />
        <mxCell id="i_RsplPlOZBVz_IMjNrW-3" style="edgeStyle=orthogonalEdgeStyle;rounded=0;orthogonalLoop=1;jettySize=auto;html=1;entryX=0;entryY=0.5;entryDx=0;entryDy=0;" edge="1" parent="1" source="i_RsplPlOZBVz_IMjNrW-1" target="i_RsplPlOZBVz_IMjNrW-2">
          <mxGeometry relative="1" as="geometry" />
        </mxCell>
        <mxCell id="i_RsplPlOZBVz_IMjNrW-1" value="" style="shape=sumEllipse;perimeter=ellipsePerimeter;whiteSpace=wrap;html=1;backgroundOutline=1;" vertex="1" parent="1">
          <mxGeometry x="130" y="290" width="40" height="40" as="geometry" />
        </mxCell>
        <mxCell id="i_RsplPlOZBVz_IMjNrW-5" value="" style="edgeStyle=orthogonalEdgeStyle;rounded=0;orthogonalLoop=1;jettySize=auto;html=1;entryX=0;entryY=0.5;entryDx=0;entryDy=0;entryPerimeter=0;" edge="1" parent="1" source="i_RsplPlOZBVz_IMjNrW-2" target="i_RsplPlOZBVz_IMjNrW-20">
          <mxGeometry relative="1" as="geometry">
            <mxPoint x="450" y="310" as="targetPoint" />
          </mxGeometry>
        </mxCell>
        <UserObject label="&lt;font style=&quot;font-size: 30px&quot;&gt;s&lt;/font&gt;" treeRoot="1" id="i_RsplPlOZBVz_IMjNrW-2">
          <mxCell style="whiteSpace=wrap;html=1;align=center;treeFolding=1;treeMoving=1;newEdgeStyle={&quot;edgeStyle&quot;:&quot;elbowEdgeStyle&quot;,&quot;startArrow&quot;:&quot;none&quot;,&quot;endArrow&quot;:&quot;none&quot;};" vertex="1" parent="1">
            <mxGeometry x="320" y="280" width="60" height="60" as="geometry" />
          </mxCell>
        </UserObject>
        <mxCell id="i_RsplPlOZBVz_IMjNrW-7" value="" style="edgeStyle=orthogonalEdgeStyle;rounded=0;orthogonalLoop=1;jettySize=auto;html=1;exitX=1;exitY=0.5;exitDx=0;exitDy=0;" edge="1" parent="1" source="i_RsplPlOZBVz_IMjNrW-20" target="i_RsplPlOZBVz_IMjNrW-6">
          <mxGeometry relative="1" as="geometry">
            <mxPoint x="550" y="310" as="sourcePoint" />
          </mxGeometry>
        </mxCell>
        <mxCell id="i_RsplPlOZBVz_IMjNrW-12" style="edgeStyle=orthogonalEdgeStyle;rounded=0;orthogonalLoop=1;jettySize=auto;html=1;entryX=0.5;entryY=0;entryDx=0;entryDy=0;endArrow=classic;endFill=1;" edge="1" parent="1" source="i_RsplPlOZBVz_IMjNrW-6" target="i_RsplPlOZBVz_IMjNrW-1">
          <mxGeometry relative="1" as="geometry">
            <Array as="points">
              <mxPoint x="630" y="200" />
              <mxPoint x="150" y="200" />
            </Array>
          </mxGeometry>
        </mxCell>
        <mxCell id="i_RsplPlOZBVz_IMjNrW-14" value="" style="edgeStyle=orthogonalEdgeStyle;rounded=0;orthogonalLoop=1;jettySize=auto;html=1;endArrow=classic;endFill=1;" edge="1" parent="1" source="i_RsplPlOZBVz_IMjNrW-6" target="i_RsplPlOZBVz_IMjNrW-13">
          <mxGeometry relative="1" as="geometry" />
        </mxCell>
        <mxCell id="i_RsplPlOZBVz_IMjNrW-6" value="" style="shape=sumEllipse;perimeter=ellipsePerimeter;whiteSpace=wrap;html=1;backgroundOutline=1;" vertex="1" parent="1">
          <mxGeometry x="610" y="290" width="40" height="40" as="geometry" />
        </mxCell>
        <mxCell id="i_RsplPlOZBVz_IMjNrW-11" style="edgeStyle=orthogonalEdgeStyle;rounded=0;orthogonalLoop=1;jettySize=auto;html=1;entryX=0.5;entryY=1;entryDx=0;entryDy=0;endArrow=classic;endFill=1;" edge="1" parent="1" source="i_RsplPlOZBVz_IMjNrW-8" target="i_RsplPlOZBVz_IMjNrW-6">
          <mxGeometry relative="1" as="geometry" />
        </mxCell>
        <UserObject label="&lt;font style=&quot;font-size: 30px&quot;&gt;1/s&lt;/font&gt;" treeRoot="1" id="i_RsplPlOZBVz_IMjNrW-8">
          <mxCell style="whiteSpace=wrap;html=1;align=center;treeFolding=1;treeMoving=1;newEdgeStyle={&quot;edgeStyle&quot;:&quot;elbowEdgeStyle&quot;,&quot;startArrow&quot;:&quot;none&quot;,&quot;endArrow&quot;:&quot;none&quot;};" vertex="1" parent="1">
            <mxGeometry x="360" y="390" width="100" height="70" as="geometry" />
          </mxCell>
        </UserObject>
        <mxCell id="i_RsplPlOZBVz_IMjNrW-10" value="" style="edgeStyle=elbowEdgeStyle;elbow=vertical;startArrow=none;endArrow=classic;rounded=0;entryX=0;entryY=0.5;entryDx=0;entryDy=0;endFill=1;" edge="1" target="i_RsplPlOZBVz_IMjNrW-8" parent="1">
          <mxGeometry relative="1" as="geometry">
            <mxPoint x="210" y="310" as="sourcePoint" />
            <Array as="points">
              <mxPoint x="290" y="425" />
            </Array>
          </mxGeometry>
        </mxCell>
        <mxCell id="i_RsplPlOZBVz_IMjNrW-16" style="edgeStyle=orthogonalEdgeStyle;rounded=0;orthogonalLoop=1;jettySize=auto;html=1;entryX=1;entryY=0.5;entryDx=0;entryDy=0;endArrow=classic;endFill=1;" edge="1" parent="1" target="i_RsplPlOZBVz_IMjNrW-21">
          <mxGeometry relative="1" as="geometry">
            <mxPoint x="840" y="310" as="sourcePoint" />
            <mxPoint x="450" y="520" as="targetPoint" />
            <Array as="points">
              <mxPoint x="840" y="520" />
            </Array>
          </mxGeometry>
        </mxCell>
        <mxCell id="i_RsplPlOZBVz_IMjNrW-17" style="edgeStyle=orthogonalEdgeStyle;rounded=0;orthogonalLoop=1;jettySize=auto;html=1;endArrow=classic;endFill=1;" edge="1" parent="1" source="i_RsplPlOZBVz_IMjNrW-13">
          <mxGeometry relative="1" as="geometry">
            <mxPoint x="920" y="310" as="targetPoint" />
          </mxGeometry>
        </mxCell>
        <UserObject label="&lt;font style=&quot;font-size: 30px&quot;&gt;1/s&lt;/font&gt;" treeRoot="1" id="i_RsplPlOZBVz_IMjNrW-13">
          <mxCell style="whiteSpace=wrap;html=1;align=center;treeFolding=1;treeMoving=1;newEdgeStyle={&quot;edgeStyle&quot;:&quot;elbowEdgeStyle&quot;,&quot;startArrow&quot;:&quot;none&quot;,&quot;endArrow&quot;:&quot;none&quot;};" vertex="1" parent="1">
            <mxGeometry x="700" y="275" width="100" height="70" as="geometry" />
          </mxCell>
        </UserObject>
        <mxCell id="i_RsplPlOZBVz_IMjNrW-18" style="edgeStyle=orthogonalEdgeStyle;rounded=0;orthogonalLoop=1;jettySize=auto;html=1;entryX=0.5;entryY=1;entryDx=0;entryDy=0;endArrow=classic;endFill=1;exitX=0;exitY=0.5;exitDx=0;exitDy=0;" edge="1" parent="1" source="i_RsplPlOZBVz_IMjNrW-21" target="i_RsplPlOZBVz_IMjNrW-1">
          <mxGeometry relative="1" as="geometry">
            <mxPoint x="360" y="520" as="sourcePoint" />
          </mxGeometry>
        </mxCell>
        <mxCell id="i_RsplPlOZBVz_IMjNrW-19" value="" style="edgeStyle=orthogonalEdgeStyle;rounded=0;orthogonalLoop=1;jettySize=auto;html=1;entryX=0;entryY=0.5;entryDx=0;entryDy=0;" edge="1" parent="1" target="i_RsplPlOZBVz_IMjNrW-1">
          <mxGeometry relative="1" as="geometry">
            <mxPoint x="20" y="310" as="sourcePoint" />
            <mxPoint x="460" y="320" as="targetPoint" />
          </mxGeometry>
        </mxCell>
        <UserObject label="&lt;font style=&quot;font-size: 30px&quot;&gt;s&lt;/font&gt;" treeRoot="1" id="i_RsplPlOZBVz_IMjNrW-20">
          <mxCell style="whiteSpace=wrap;html=1;align=center;treeFolding=1;treeMoving=1;newEdgeStyle={&quot;edgeStyle&quot;:&quot;elbowEdgeStyle&quot;,&quot;startArrow&quot;:&quot;none&quot;,&quot;endArrow&quot;:&quot;none&quot;};" vertex="1" parent="1">
            <mxGeometry x="425" y="280" width="60" height="60" as="geometry" />
          </mxCell>
        </UserObject>
        <UserObject label="&lt;font style=&quot;font-size: 30px&quot;&gt;s&lt;/font&gt;" treeRoot="1" id="i_RsplPlOZBVz_IMjNrW-21">
          <mxCell style="whiteSpace=wrap;html=1;align=center;treeFolding=1;treeMoving=1;newEdgeStyle={&quot;edgeStyle&quot;:&quot;elbowEdgeStyle&quot;,&quot;startArrow&quot;:&quot;none&quot;,&quot;endArrow&quot;:&quot;none&quot;};" vertex="1" parent="1">
            <mxGeometry x="380" y="490" width="60" height="60" as="geometry" />
          </mxCell>
        </UserObject>
        <mxCell id="i_RsplPlOZBVz_IMjNrW-22" value="&lt;font style=&quot;font-size: 20px&quot;&gt;R(s)&lt;/font&gt;" style="text;html=1;strokeColor=none;fillColor=none;align=center;verticalAlign=middle;whiteSpace=wrap;rounded=0;" vertex="1" parent="1">
          <mxGeometry x="30" y="280" width="40" height="20" as="geometry" />
        </mxCell>
        <mxCell id="i_RsplPlOZBVz_IMjNrW-24" value="&lt;font style=&quot;font-size: 20px&quot;&gt;C(s)&lt;/font&gt;" style="text;html=1;strokeColor=none;fillColor=none;align=center;verticalAlign=middle;whiteSpace=wrap;rounded=0;" vertex="1" parent="1">
          <mxGeometry x="870" y="280" width="40" height="20" as="geometry" />
        </mxCell>
        <mxCell id="i_RsplPlOZBVz_IMjNrW-25" value="&lt;font style=&quot;font-size: 20px&quot;&gt;-&lt;/font&gt;" style="text;html=1;strokeColor=none;fillColor=none;align=center;verticalAlign=middle;whiteSpace=wrap;rounded=0;" vertex="1" parent="1">
          <mxGeometry x="130" y="325" width="20" height="20" as="geometry" />
        </mxCell>
        <mxCell id="i_RsplPlOZBVz_IMjNrW-26" value="&lt;font style=&quot;font-size: 20px&quot;&gt;+&lt;/font&gt;" style="text;html=1;strokeColor=none;fillColor=none;align=center;verticalAlign=middle;whiteSpace=wrap;rounded=0;" vertex="1" parent="1">
          <mxGeometry x="100" y="280" width="20" height="20" as="geometry" />
        </mxCell>
        <mxCell id="i_RsplPlOZBVz_IMjNrW-27" value="&lt;font style=&quot;font-size: 20px&quot;&gt;-&lt;/font&gt;" style="text;html=1;strokeColor=none;fillColor=none;align=center;verticalAlign=middle;whiteSpace=wrap;rounded=0;" vertex="1" parent="1">
          <mxGeometry x="130" y="260" width="20" height="20" as="geometry" />
        </mxCell>
        <mxCell id="i_RsplPlOZBVz_IMjNrW-28" value="&lt;font style=&quot;font-size: 20px&quot;&gt;-&lt;/font&gt;" style="text;html=1;strokeColor=none;fillColor=none;align=center;verticalAlign=middle;whiteSpace=wrap;rounded=0;" vertex="1" parent="1">
          <mxGeometry x="610" y="340" width="20" height="20" as="geometry" />
        </mxCell>
        <mxCell id="i_RsplPlOZBVz_IMjNrW-29" value="&lt;font style=&quot;font-size: 20px&quot;&gt;+&lt;/font&gt;" style="text;html=1;strokeColor=none;fillColor=none;align=center;verticalAlign=middle;whiteSpace=wrap;rounded=0;" vertex="1" parent="1">
          <mxGeometry x="580" y="295" width="20" height="20" as="geometry" />
        </mxCell>
        <mxCell id="i_RsplPlOZBVz_IMjNrW-30" value="&lt;font style=&quot;font-size: 20px&quot;&gt;-&lt;/font&gt;" style="text;html=1;strokeColor=none;fillColor=none;align=center;verticalAlign=middle;whiteSpace=wrap;rounded=0;" vertex="1" parent="1">
          <mxGeometry x="610" y="275" width="20" height="20" as="geometry" />
        </mxCell>
      </root>
    </mxGraphModel>
  </diagram>
</mxfile>
